<svg xmlns="http://www.w3.org/2000/svg" width="30" height="30" viewBox="0 0 30 30" role="img" aria-label="Saveroom"><title>Saveroom</title><g transform="translate(0.0 0.0) scale(1.0)"><path d="M3 28V13a12 12 0 0 1 24 0v15a1 1 0 0 1-1 1H4a1 1 0 0 1-1-1z" fill="#5190ef"/><path d="M8.5 12.5a6.5 6.5 0 0 1 13 0z" fill="#ffffff"/><rect x="7" y="15.5" width="4.5" height="3" rx="0.7" fill="#ffffff"/><rect x="12.75" y="15.5" width="4.5" height="3" rx="0.7" fill="#ffffff"/><rect x="18.5" y="15.5" width="4.5" height="3" rx="0.7" fill="#ffffff"/><rect x="7" y="20" width="4.5" height="3" rx="0.7" fill="#ffffff"/><rect x="12.75" y="20" width="4.5" height="3" rx="0.7" fill="#ffffff"/><rect x="18.5" y="20" width="4.5" height="3" rx="0.7" fill="#ffffff"/><rect x="7" y="24.5" width="4.5" height="3" rx="0.7" fill="#ffffff"/><rect x="12.75" y="24.5" width="4.5" height="3" rx="0.7" fill="#ffffff"/><rect x="18.5" y="24.5" width="4.5" height="3" rx="0.7" fill="#ffffff"/></g></svg>
